<?xml version="1.0" encoding="UTF-8"?>
<!-- Generator: Adobe Illustrator 27.8.0, SVG Export Plug-In . SVG Version: 6.00 Build 0)  -->
<svg xmlns="http://www.w3.org/2000/svg" xmlns:xlink="http://www.w3.org/1999/xlink" version="1.1" x="0px" y="0px" viewBox="0 0 190 29" style="enable-background:new 0 0 190 29;" xml:space="preserve">
<style type="text/css">
	.st0{fill:#F80074;}
	.st1{fill:#000E36;}
	.st2{fill:#FFFFFF;}
	.st3{opacity:0.2;}
	.st4{display:none;}
	.st5{display:inline;opacity:0.2;fill:#171A33;}
	.st6{display:inline;opacity:0.25;}
	.st7{fill:none;stroke:#171A33;stroke-width:0.7305;stroke-linecap:round;stroke-linejoin:round;}
	.st8{fill:none;stroke:#171A33;stroke-width:0.7305;stroke-linecap:round;stroke-linejoin:round;stroke-dasharray:7.394,4.9293;}
	.st9{fill:none;stroke:#171A33;stroke-width:0.7305;stroke-linecap:round;stroke-linejoin:round;stroke-dasharray:7.1937,4.7958;}
	
		.st10{display:inline;opacity:0.25;fill:none;stroke:#171A33;stroke-width:0.7305;stroke-linecap:round;stroke-linejoin:round;stroke-miterlimit:10;stroke-dasharray:7.3046,4.8697;}
	.st11{display:inline;opacity:0.34;fill:#171A33;}
</style>
<g id="logos_lm">
</g>
<g id="Calque_3">
	<g>
		<g>
			<path class="st1" d="M51.3,16.2V2h3.1v11.5h7v2.9H51.3V16.2z"></path>
			<path class="st1" d="M69.6,16.1c-3.8,0-6.1-2.1-6.1-6.4V2h3.1v7.8c0,2.3,1.2,3.5,3.1,3.5c1.9,0,3.1-1.2,3.1-3.4V2h3.1v7.8     C75.7,14,73.3,16.1,69.6,16.1z"></path>
			<path class="st1" d="M89.1,16.2l-6.8-9.1v9.1h-3.1V2h2.9l6.6,8.8V2h3.1v14.3h-2.7V16.2z"></path>
			<path class="st1" d="M100.9,16.2h-5.5V2h5.5c4.5,0,7.5,3.1,7.5,7.1l0,0C108.5,13.1,105.4,16.2,100.9,16.2z M105.2,9.1     c0-2.6-1.7-4.4-4.3-4.4h-2.4v8.6h2.4C103.5,13.3,105.2,11.6,105.2,9.1L105.2,9.1z"></path>
			<path class="st1" d="M111.7,16.2V2h3.1v14.3h-3.1V16.2z"></path>
			<path class="st1" d="M135.7,16.2V6.8l-3.9,6.2h-0.1L127.7,7v9.2h-3.1V2h3.3l3.7,6.1l3.7-6.1h3.3v14.3h-3V16.2z"></path>
			<path class="st1" d="M145.8,13l-1.3,3.2h-3.2l6.1-14.3h2.9l6.1,14.3H153l-1.3-3.2h-5.4l1.2-2.8h3.2l-1.9-4.7l-1.9,4.7L145.8,13z"></path>
			<path class="st1" d="M163.3,4.8v11.4h-3.1V4.8H156V2h11.7v2.9H163.3z"></path>
			<path class="st1" d="M170.4,16.2V2h3.1v14.3h-3.1V16.2z"></path>
			<path class="st1" d="M187.3,16.2l-6.8-9.1v9.1h-3.1V2h2.9l6.6,8.8V2h3.1v14.3h-2.7V16.2z"></path>
		</g>
		<g>
			<rect y="0.2" class="st0" width="6.7" height="28.6"></rect>
			<polygon class="st0" points="13.3,28.8 13.3,19.2 22.7,28.7    "></polygon>
			<polygon class="st1" points="41.2,0.2 41.2,0.2 29.6,11.8 27.3,14.4 24.7,11.8 13.3,0.2 13.3,9.8 22.5,19.2 27.3,24 32,19.2      34.5,16.6 34.5,28.8 41.2,28.8    "></polygon>
		</g>
		<g>
			<path class="st1" d="M55.6,25.8c0.3,0.3,0.4,0.7,0.4,1.1c0,0.4-0.1,0.7-0.3,1s-0.4,0.5-0.8,0.7c-0.3,0.2-0.7,0.2-1.2,0.2h-2.4v-7     h2.4c0.7,0,1.2,0.2,1.6,0.5c0.4,0.3,0.6,0.8,0.6,1.3c0,0.4-0.1,0.8-0.4,1.1c-0.2,0.3-0.5,0.5-0.9,0.6     C55,25.2,55.3,25.4,55.6,25.8z M52,24.9h1.6c0.5,0,0.8-0.1,1.1-0.3c0.3-0.2,0.4-0.5,0.4-0.9c0-0.4-0.1-0.7-0.4-0.9     c-0.3-0.2-0.6-0.3-1.1-0.3H52V24.9z M54.9,27.8c0.3-0.2,0.4-0.6,0.4-1c0-0.4-0.1-0.8-0.4-1c-0.3-0.3-0.7-0.4-1.2-0.4H52v2.7h1.7     C54.2,28.2,54.6,28.1,54.9,27.8z"></path>
			<path class="st1" d="M60,21.8v4.4c0,0.7,0.2,1.2,0.5,1.5c0.3,0.3,0.8,0.5,1.4,0.5c0.6,0,1-0.2,1.3-0.5c0.3-0.3,0.5-0.8,0.5-1.5     v-4.4h0.7v4.4c0,0.9-0.2,1.6-0.7,2c-0.5,0.4-1.1,0.7-1.8,0.7c-0.8,0-1.4-0.2-1.8-0.7c-0.5-0.4-0.7-1.1-0.7-2v-4.4H60z"></path>
			<path class="st1" d="M69,28.6c-0.3-0.2-0.6-0.4-0.8-0.7c-0.2-0.3-0.3-0.6-0.3-1h0.7c0,0.3,0.2,0.6,0.5,0.9     c0.3,0.3,0.7,0.4,1.2,0.4c0.5,0,0.8-0.1,1.1-0.4c0.3-0.2,0.4-0.6,0.4-0.9c0-0.3-0.1-0.5-0.2-0.7s-0.3-0.3-0.6-0.4     c-0.2-0.1-0.5-0.2-0.9-0.3c-0.5-0.1-0.8-0.3-1.1-0.4c-0.3-0.1-0.5-0.3-0.7-0.6c-0.2-0.3-0.3-0.6-0.3-1c0-0.4,0.1-0.7,0.3-1     c0.2-0.3,0.5-0.5,0.8-0.7c0.3-0.2,0.7-0.2,1.2-0.2c0.6,0,1.2,0.2,1.6,0.5s0.6,0.7,0.7,1.2h-0.8c0-0.3-0.2-0.5-0.5-0.8     c-0.3-0.2-0.6-0.3-1.1-0.3c-0.4,0-0.8,0.1-1.1,0.3c-0.3,0.2-0.4,0.5-0.4,0.9c0,0.3,0.1,0.5,0.2,0.7c0.2,0.2,0.3,0.3,0.6,0.4     c0.2,0.1,0.5,0.2,0.9,0.3c0.5,0.1,0.8,0.3,1.1,0.4s0.5,0.3,0.7,0.6c0.2,0.3,0.3,0.6,0.3,1c0,0.3-0.1,0.6-0.3,0.9     c-0.2,0.3-0.4,0.5-0.8,0.7c-0.3,0.2-0.7,0.3-1.2,0.3C69.8,28.8,69.3,28.8,69,28.6z"></path>
			<path class="st1" d="M76.6,21.8v7h-0.7v-7H76.6z"></path>
			<path class="st1" d="M85.6,28.8h-0.7L81,22.9v5.9h-0.7v-7H81l3.9,5.9v-5.9h0.7V28.8z"></path>
			<path class="st1" d="M90,22.3V25h2.7v0.6H90v2.7h3v0.6h-3.7v-7h3.7v0.6H90z"></path>
			<path class="st1" d="M97.3,28.6c-0.3-0.2-0.6-0.4-0.8-0.7c-0.2-0.3-0.3-0.6-0.3-1h0.7c0,0.3,0.2,0.6,0.5,0.9     c0.3,0.3,0.7,0.4,1.2,0.4c0.5,0,0.8-0.1,1.1-0.4c0.3-0.2,0.4-0.6,0.4-0.9c0-0.3-0.1-0.5-0.2-0.7c-0.2-0.2-0.3-0.3-0.6-0.4     c-0.2-0.1-0.5-0.2-0.9-0.3c-0.5-0.1-0.8-0.3-1.1-0.4c-0.3-0.1-0.5-0.3-0.7-0.6c-0.2-0.3-0.3-0.6-0.3-1c0-0.4,0.1-0.7,0.3-1     c0.2-0.3,0.5-0.5,0.8-0.7c0.3-0.2,0.7-0.2,1.2-0.2c0.6,0,1.2,0.2,1.6,0.5c0.4,0.3,0.6,0.7,0.7,1.2H100c0-0.3-0.2-0.5-0.5-0.8     c-0.3-0.2-0.6-0.3-1.1-0.3c-0.4,0-0.8,0.1-1.1,0.3c-0.3,0.2-0.4,0.5-0.4,0.9c0,0.3,0.1,0.5,0.2,0.7c0.2,0.2,0.3,0.3,0.6,0.4     c0.2,0.1,0.5,0.2,0.9,0.3c0.5,0.1,0.8,0.3,1.1,0.4c0.3,0.1,0.5,0.3,0.7,0.6c0.2,0.3,0.3,0.6,0.3,1c0,0.3-0.1,0.6-0.3,0.9     c-0.2,0.3-0.4,0.5-0.8,0.7c-0.3,0.2-0.7,0.3-1.2,0.3C98.1,28.8,97.7,28.8,97.3,28.6z"></path>
			<path class="st1" d="M105.1,28.6c-0.3-0.2-0.6-0.4-0.8-0.7c-0.2-0.3-0.3-0.6-0.3-1h0.7c0,0.3,0.2,0.6,0.5,0.9     c0.3,0.3,0.7,0.4,1.2,0.4c0.5,0,0.8-0.1,1.1-0.4c0.3-0.2,0.4-0.6,0.4-0.9c0-0.3-0.1-0.5-0.2-0.7c-0.2-0.2-0.3-0.3-0.6-0.4     c-0.2-0.1-0.5-0.2-0.9-0.3c-0.5-0.1-0.8-0.3-1.1-0.4c-0.3-0.1-0.5-0.3-0.7-0.6c-0.2-0.3-0.3-0.6-0.3-1c0-0.4,0.1-0.7,0.3-1     c0.2-0.3,0.5-0.5,0.8-0.7c0.3-0.2,0.7-0.2,1.2-0.2c0.6,0,1.2,0.2,1.6,0.5s0.6,0.7,0.7,1.2h-0.8c0-0.3-0.2-0.5-0.5-0.8     c-0.3-0.2-0.6-0.3-1.1-0.3c-0.4,0-0.8,0.1-1.1,0.3c-0.3,0.2-0.4,0.5-0.4,0.9c0,0.3,0.1,0.5,0.2,0.7c0.2,0.2,0.3,0.3,0.6,0.4     c0.2,0.1,0.5,0.2,0.9,0.3c0.5,0.1,0.8,0.3,1.1,0.4c0.3,0.1,0.5,0.3,0.7,0.6c0.2,0.3,0.3,0.6,0.3,1c0,0.3-0.1,0.6-0.3,0.9     c-0.2,0.3-0.4,0.5-0.8,0.7c-0.3,0.2-0.7,0.3-1.2,0.3C105.9,28.8,105.5,28.8,105.1,28.6z"></path>
			<path class="st1" d="M118.3,28.4c-0.5-0.3-0.9-0.7-1.2-1.3c-0.3-0.5-0.5-1.2-0.5-1.8s0.2-1.3,0.5-1.8c0.3-0.5,0.7-1,1.2-1.3     c0.5-0.3,1.1-0.5,1.8-0.5c0.7,0,1.2,0.2,1.8,0.5c0.5,0.3,0.9,0.7,1.2,1.3c0.3,0.5,0.4,1.2,0.4,1.8s-0.1,1.3-0.4,1.8     c-0.3,0.5-0.7,1-1.2,1.3c-0.5,0.3-1.1,0.5-1.8,0.5C119.4,28.8,118.8,28.7,118.3,28.4z M121.4,27.9c0.4-0.2,0.7-0.6,1-1     c0.2-0.5,0.4-1,0.4-1.6s-0.1-1.1-0.4-1.6c-0.2-0.4-0.6-0.8-1-1s-0.9-0.4-1.4-0.4c-0.5,0-1,0.1-1.4,0.4c-0.4,0.2-0.7,0.6-1,1     c-0.2,0.4-0.4,1-0.4,1.6s0.1,1.1,0.4,1.6c0.2,0.5,0.6,0.8,1,1c0.4,0.2,0.9,0.4,1.4,0.4C120.6,28.2,121,28.1,121.4,27.9z"></path>
			<path class="st1" d="M133.7,21.9v6.9H133v-5.5l-2.5,5.5H130l-2.5-5.5v5.5h-0.7v-6.9h0.7l2.7,6l2.7-6H133.7z"></path>
			<path class="st1" d="M142.7,28.8H142l-3.9-5.9v5.9h-0.7v-7h0.7l3.9,5.9v-5.9h0.7V28.8z"></path>
			<path class="st1" d="M147.1,21.8v7h-0.7v-7H147.1z"></path>
			<path class="st1" d="M150.9,23.4c0.3-0.5,0.7-1,1.2-1.3c0.5-0.3,1.1-0.5,1.7-0.5c0.8,0,1.4,0.2,2,0.6c0.6,0.4,1,0.9,1.2,1.6h-0.8     c-0.2-0.5-0.5-0.8-0.9-1.1c-0.4-0.3-0.9-0.4-1.5-0.4c-0.5,0-1,0.1-1.4,0.4c-0.4,0.2-0.7,0.6-1,1c-0.2,0.5-0.4,1-0.4,1.6     s0.1,1.1,0.4,1.6c0.2,0.4,0.6,0.8,1,1c0.4,0.2,0.9,0.4,1.4,0.4c0.6,0,1.1-0.1,1.5-0.4c0.4-0.3,0.7-0.6,0.9-1.1h0.8     c-0.3,0.7-0.7,1.2-1.2,1.6s-1.2,0.6-2,0.6c-0.6,0-1.2-0.2-1.7-0.5s-0.9-0.7-1.2-1.3s-0.4-1.2-0.4-1.8S150.6,24,150.9,23.4z"></path>
			<path class="st1" d="M164.6,27.1h-3.2l-0.6,1.7h-0.7l2.6-6.9h0.8l2.5,6.9h-0.7L164.6,27.1z M164.4,26.5l-1.4-3.8l-1.4,3.8H164.4z     "></path>
			<path class="st1" d="M174.5,28.8h-0.7l-3.9-5.9v5.9h-0.7v-7h0.7l3.9,5.9v-5.9h0.7V28.8z"></path>
			<path class="st1" d="M182.2,27.1H179l-0.6,1.7h-0.7l2.6-6.9h0.8l2.5,6.9h-0.7L182.2,27.1z M182,26.5l-1.4-3.8l-1.4,3.8H182z"></path>
			<path class="st1" d="M187.5,28.2h2.5v0.6h-3.2v-7h0.7V28.2z"></path>
		</g>
	</g>
</g>
<g id="repères" class="st4">
</g>
</svg>
